# xmcd
#
# Track frame offsets: 
#        150
#        19199
#        33459
#        54621
#        78055
#        94126
#        112382
#        140419
#        158363
#        177572
#        196641
#        220987
#        241588
#        260246
#        281879
#
# Disc length: 4032 seconds
#
# Revision: 0
# Processed by: cddbd v1.5.2PL0 Copyright (c) Steve Scherf et al.
# Submitted via: ExactAudioCopyFreeDBPlugin 1.0
#
DISCID=d30fbe0f
DTITLE=Johan Th. Bos en de Bbc-Combo - Kijk eens in de spiegel
DYEAR=2005
DGENRE=Gospel
TTITLE0=Ik ben terug
TTITLE1=Geen dag is zo donker
TTITLE2=Als Hij vraagt
TTITLE3=Alle doornen
TTITLE4=Ik verlang naar het land
TTITLE5=O Heer, ik weet
TTITLE6=Vrijheid zit van binnen
TTITLE7=Kijk eens in de speigel
TTITLE8=Er komt een dag
TTITLE9=Ik vertrouw op Hem
TTITLE10=Zeg maar zacht
TTITLE11=Niet wat ik voor U doen wil
TTITLE12=Laat mij zijn
TTITLE13=Bij de troon van Uw genade
TTITLE14=Prediker 12
EXTD=
EXTT0=
EXTT1=
EXTT2=
EXTT3=
EXTT4=
EXTT5=
EXTT6=
EXTT7=
EXTT8=
EXTT9=
EXTT10=
EXTT11=
EXTT12=
EXTT13=
EXTT14=
PLAYORDER=
